<mxfile host="app.diagrams.net" modified="2020-09-29T02:37:05.960Z" agent="5.0 (Macintosh; Intel Mac OS X 10_13_3) AppleWebKit/537.36 (KHTML, like Gecko) Chrome/85.0.4183.83 Safari/537.36" etag="zBh7vsjO2U4ADU2xS0Qr" version="13.7.6" type="github">
  <diagram id="9QkGtqOGt_geyPXCo-Wv" name="Page-1">
    <mxGraphModel dx="946" dy="574" grid="1" gridSize="10" guides="1" tooltips="1" connect="1" arrows="1" fold="1" page="1" pageScale="1" pageWidth="827" pageHeight="1169" math="0" shadow="0">
      <root>
        <mxCell id="0" />
        <mxCell id="1" parent="0" />
        <mxCell id="nOSKYK9A4OK2dfoIvYsI-2" value="Actor" style="shape=umlActor;verticalLabelPosition=bottom;verticalAlign=top;html=1;" vertex="1" parent="1">
          <mxGeometry x="150" y="230" width="30" height="60" as="geometry" />
        </mxCell>
        <mxCell id="nOSKYK9A4OK2dfoIvYsI-3" value="Use Case" style="ellipse;whiteSpace=wrap;html=1;" vertex="1" parent="1">
          <mxGeometry x="360" y="40" width="140" height="70" as="geometry" />
        </mxCell>
        <mxCell id="nOSKYK9A4OK2dfoIvYsI-4" value="" style="endArrow=block;dashed=1;endFill=0;endSize=12;html=1;entryX=0;entryY=0.5;entryDx=0;entryDy=0;" edge="1" parent="1" source="nOSKYK9A4OK2dfoIvYsI-2" target="nOSKYK9A4OK2dfoIvYsI-3">
          <mxGeometry width="160" relative="1" as="geometry">
            <mxPoint x="240" y="114.5" as="sourcePoint" />
            <mxPoint x="400" y="114.5" as="targetPoint" />
          </mxGeometry>
        </mxCell>
      </root>
    </mxGraphModel>
  </diagram>
</mxfile>
